<?xml version="1.0" encoding="utf-8"?>
<!-- Generator: Adobe Illustrator 24.3.0, SVG Export Plug-In . SVG Version: 6.00 Build 0)  -->
<svg version="1.1" id="Ebene_1" xmlns="http://www.w3.org/2000/svg" xmlns:xlink="http://www.w3.org/1999/xlink" x="0px" y="0px"
	 viewBox="0 0 24 24" style="enable-background:new 0 0 24 24;" xml:space="preserve">
<style type="text/css">
	.st0{fill:none;}
	.st1{fill:none;stroke:#FFFFFF;stroke-width:2;stroke-linecap:round;stroke-linejoin:round;}
</style>
<path class="st0" d="M0,0h24v24H0V0z"/>
<path class="st1" d="M4,7h3c0.6,0,1-0.4,1-1V5c0-1.1,0.9-2,2-2s2,0.9,2,2v1c0,0.6,0.4,1,1,1h3c0.6,0,1,0.4,1,1v3c0,0.6,0.4,1,1,1h1
	c1.1,0,2,0.9,2,2s-0.9,2-2,2h-1c-0.6,0-1,0.4-1,1v3c0,0.6-0.4,1-1,1h-3c-0.6,0-1-0.4-1-1v-1c0-1.1-0.9-2-2-2s-2,0.9-2,2v1
	c0,0.6-0.4,1-1,1H4c-0.6,0-1-0.4-1-1v-3c0-0.6,0.4-1,1-1h1c1.1,0,2-0.9,2-2s-0.9-2-2-2H4c-0.6,0-1-0.4-1-1V8C3,7.4,3.4,7,4,7"/>
</svg>
