<?xml version="1.0" encoding="utf-8"?>
<!-- Generator: Adobe Illustrator 24.3.0, SVG Export Plug-In . SVG Version: 6.00 Build 0)  -->
<svg version="1.1" id="Ebene_1" xmlns="http://www.w3.org/2000/svg" xmlns:xlink="http://www.w3.org/1999/xlink" x="0px" y="0px"
	 viewBox="0 0 24 24" style="enable-background:new 0 0 24 24;" xml:space="preserve">
<style type="text/css">
	.st0{fill:none;}
	.st1{fill:none;stroke:#FFFFFF;stroke-width:2;stroke-linecap:round;stroke-linejoin:round;}
</style>
<path class="st0" d="M0,0h24v24H0V0z"/>
<line class="st1" x1="15" y1="5" x2="15" y2="7"/>
<line class="st1" x1="15" y1="11" x2="15" y2="13"/>
<line class="st1" x1="15" y1="17" x2="15" y2="19"/>
<path class="st1" d="M5,5h14c1.1,0,2,0.9,2,2v3c-1.1,0-2,0.9-2,2s0.9,2,2,2v3c0,1.1-0.9,2-2,2H5c-1.1,0-2-0.9-2-2v-3
	c1.1,0,2-0.9,2-2s-0.9-2-2-2V7C3,5.9,3.9,5,5,5"/>
</svg>
